<svg xmlns="http://www.w3.org/2000/svg">
<symbol id='icon-facebook' viewBox="0 0 24 24" fill='none'>
<path d="M18 2H15C13.6739 2 12.4021 2.52678 11.4645 3.46447C10.5268 4.40215 10 5.67392 10 7V10H7V14H10V22H14V14H17L18 10H14V7C14 6.73478 14.1054 6.48043 14.2929 6.29289C14.4804 6.10536 14.7348 6 15 6H18V2Z"/>
</symbol>
<symbol id='icon-twitter' viewBox="0 0 24 24" fill='none'>
<path d="M23 2.99998C22.0424 3.67546 20.9821 4.19209 19.86 4.52999C19.2577 3.8375 18.4573 3.34668 17.567 3.12391C16.6767 2.90115 15.7395 2.95718 14.8821 3.28444C14.0247 3.6117 13.2884 4.19439 12.773 4.9537C12.2575 5.71302 11.9877 6.61232 12 7.52998V8.52998C10.2426 8.57555 8.50127 8.1858 6.93101 7.39543C5.36074 6.60506 4.01032 5.43862 3 3.99998C3 3.99998 -1 13 8 17C5.94053 18.398 3.48716 19.0989 1 19C10 24 21 19 21 7.49998C20.9991 7.22144 20.9723 6.94358 20.92 6.66999C21.9406 5.66348 22.6608 4.3927 23 2.99998V2.99998Z"/>
</symbol>
<symbol id='icon-more-horizontal' viewBox="0 0 24 24" fill='none'>
<path d="M12 13C12.5523 13 13 12.5523 13 12C13 11.4477 12.5523 11 12 11C11.4477 11 11 11.4477 11 12C11 12.5523 11.4477 13 12 13Z"/>
<path d="M19 13C19.5523 13 20 12.5523 20 12C20 11.4477 19.5523 11 19 11C18.4477 11 18 11.4477 18 12C18 12.5523 18.4477 13 19 13Z"/>
<path d="M5 13C5.55228 13 6 12.5523 6 12C6 11.4477 5.55228 11 5 11C4.44772 11 4 11.4477 4 12C4 12.5523 4.44772 13 5 13Z"/>
</symbol>
</svg>