<svg width="24" height="24" viewBox="0 0 24 24" fill="none" xmlns="http://www.w3.org/2000/svg">
<path fill-rule="evenodd" clip-rule="evenodd" d="M10.7095 18.7076C10.8995 18.5076 10.9995 18.2576 10.9995 17.9976C10.9995 17.7376 10.8995 17.4876 10.7095 17.2876L6.40945 12.9976L19.9995 12.9976C20.5495 12.9976 20.9995 12.5476 20.9995 11.9976C20.9995 11.4476 20.5495 10.9976 19.9995 10.9976L6.40945 10.9976L10.7095 6.70762C11.0995 6.31762 11.0995 5.67762 10.7095 5.28762C10.3195 4.89762 9.67945 4.89762 9.28945 5.28762L3.28945 11.2876C3.19945 11.3776 3.12945 11.4876 3.07945 11.6076C3.05945 11.6576 3.03945 11.6976 3.03945 11.7476C2.98945 11.9076 2.98945 12.0876 3.03945 12.2476C3.03945 12.2976 3.05945 12.3376 3.07945 12.3876C3.12945 12.5076 3.19945 12.6176 3.28945 12.7076L9.28945 18.7076C9.67945 19.0976 10.3195 19.0976 10.7095 18.7076" fill="#6C1BDB"/>
</svg>
