<svg width="24" height="24" viewBox="0 0 24 24" fill="none" xmlns="http://www.w3.org/2000/svg">
<path fill-rule="evenodd" clip-rule="evenodd" d="M10.7104 18.7076C10.9004 18.5076 11.0004 18.2576 11.0004 17.9976C11.0004 17.7376 10.9004 17.4876 10.7104 17.2876L6.41043 12.9976L20.0004 12.9976C20.5504 12.9976 21.0004 12.5476 21.0004 11.9976C21.0004 11.4476 20.5504 10.9976 20.0004 10.9976L6.41043 10.9976L10.7104 6.70759C11.1004 6.31759 11.1004 5.67759 10.7104 5.28759C10.3204 4.89759 9.68043 4.89759 9.29043 5.28759L3.29043 11.2876C3.20043 11.3776 3.13043 11.4876 3.08043 11.6076C3.06043 11.6576 3.04043 11.6976 3.04043 11.7476C2.99043 11.9076 2.99043 12.0876 3.04043 12.2476C3.04043 12.2976 3.06043 12.3376 3.08043 12.3876C3.13043 12.5076 3.20043 12.6176 3.29043 12.7076L9.29043 18.7076C9.68043 19.0976 10.3204 19.0976 10.7104 18.7076Z" fill="white"/>
</svg>
