<svg width="24" height="24" viewBox="0 0 24 24" fill="none" xmlns="http://www.w3.org/2000/svg">
<path fill-rule="evenodd" clip-rule="evenodd" d="M10.7104 5.29241C10.9004 5.49241 11.0004 5.74241 11.0004 6.00241C11.0004 6.26241 10.9004 6.51241 10.7104 6.71241L6.41043 11.0024L20.0004 11.0024C20.5504 11.0024 21.0004 11.4524 21.0004 12.0024C21.0004 12.5524 20.5504 13.0024 20.0004 13.0024L6.41043 13.0024L10.7104 17.2924C11.1004 17.6824 11.1004 18.3224 10.7104 18.7124C10.3204 19.1024 9.68043 19.1024 9.29043 18.7124L3.29043 12.7124C3.20043 12.6224 3.13043 12.5124 3.08043 12.3924C3.06043 12.3424 3.04043 12.3024 3.04043 12.2524C2.99043 12.0924 2.99043 11.9124 3.04043 11.7524C3.04043 11.7024 3.06043 11.6624 3.08043 11.6124C3.13043 11.4924 3.20043 11.3824 3.29043 11.2924L9.29043 5.29241C9.68043 4.90241 10.3204 4.90241 10.7104 5.29241" fill="#98979B"/>
</svg>
